# xmcd
#
# Track frame offsets: 
#        150
#        21760
#        38747
#        56095
#        77700
#        94712
#
# Disc length: 1490 seconds
#
# Revision: 2
# Processed by: cddbd v1.5.2PL0 Copyright (c) Steve Scherf et al.
# Submitted via: ExactAudioCopyFreeDBPlugin 1.0
#
DISCID=4005d006
DTITLE=小椋佳 - 「銀河英雄伝説外伝」第２期 主題歌
DYEAR=2000
DGENRE=Soundtrack
TTITLE0=AKEMI　Story of Time
TTITLE1=小椋佳　僕たちの航跡
TTITLE2=小椋佳　約束された未来
TTITLE3=Story of Time
TTITLE4=僕たちの航跡
TTITLE5=約束された未来
EXTD=
EXTT0=
EXTT1=
EXTT2=
EXTT3=
EXTT4=
EXTT5=
PLAYORDER=
